<svg xmlns="http://www.w3.org/2000/svg" viewBox="0 0 640 160" role="img" aria-label="Dukan Desk — Har dukaan ka smart hisaab">
  <!-- Icon (same artwork as icon.svg, scaled to 128px) -->
  <g transform="translate(16 16) scale(0.25)">
    <rect width="512" height="512" rx="112" fill="#4F46E5"/>
    <rect x="88" y="104" width="336" height="28" rx="14" fill="#FFFFFF"/>
    <path d="M104 132H180V196A38 38 0 0 1 104 196Z" fill="#FFFFFF"/>
    <path d="M180 132H256V196A38 38 0 0 1 180 196Z" fill="#F97316"/>
    <path d="M256 132H332V196A38 38 0 0 1 256 196Z" fill="#FFFFFF"/>
    <path d="M332 132H408V196A38 38 0 0 1 332 196Z" fill="#F97316"/>
    <rect x="112" y="276" width="288" height="28" rx="14" fill="#F97316"/>
    <path d="M136 304H376V392A20 20 0 0 1 356 412H156A20 20 0 0 1 136 392Z" fill="#FFFFFF"/>
    <rect x="172" y="330" width="120" height="14" rx="7" fill="#C7C4F7"/>
    <rect x="172" y="358" width="80" height="14" rx="7" fill="#C7C4F7"/>
  </g>

  <!-- Wordmark + tagline. Text uses system fonts; convert to outlines in a design
       tool (e.g. Figma/Inkscape) before printing so it looks identical everywhere. -->
  <text x="172" y="88" font-family="Poppins, 'Segoe UI', Roboto, Arial, sans-serif" font-size="60" font-weight="800" letter-spacing="-1">
    <tspan fill="#14162B">Dukan</tspan><tspan fill="#4F46E5"> Desk</tspan>
  </text>
  <text x="174" y="128" font-family="Poppins, 'Segoe UI', Roboto, Arial, sans-serif" font-size="26" font-weight="500" fill="#6B7089">
    Har dukaan ka smart hisaab
  </text>
</svg>
